<?xml version="1.0" standalone="no"?>
<!DOCTYPE svg PUBLIC "-//W3C//DTD SVG 20010904//EN"
 "http://www.w3.org/TR/2001/REC-SVG-20010904/DTD/svg10.dtd">
<svg version="1.0" xmlns="http://www.w3.org/2000/svg"
 width="1080.000000pt" height="1080.000000pt" viewBox="0 0 1080.000000 1080.000000"
 preserveAspectRatio="xMidYMid meet">

<g transform="translate(0.000000,1080.000000) scale(0.100000,-0.100000)"
fill="#000000" stroke="none">
<path d="M5070 9475 c-41 -8 -117 -28 -169 -45 -52 -16 -98 -27 -102 -23 -4 5
-9 19 -11 33 -3 25 -4 25 -88 22 -143 -5 -333 -66 -455 -147 -44 -29 -111 -70
-150 -90 -114 -61 -188 -112 -220 -151 -16 -19 -60 -58 -96 -85 -37 -27 -85
-73 -107 -102 -65 -82 -117 -128 -189 -162 -17 -8 -34 -19 -38 -25 -7 -12 -76
-49 -87 -46 -14 2 -228 -218 -228 -236 0 -10 -5 -18 -11 -18 -5 0 -8 -4 -4 -9
3 -5 -1 -15 -8 -23 -55 -57 -118 -161 -136 -223 -36 -129 -78 -260 -95 -300
-11 -26 -20 -89 -27 -185 -5 -80 -11 -152 -14 -160 -2 -8 -7 -46 -11 -85 -3
-38 -11 -79 -17 -90 -12 -23 -26 -295 -14 -295 4 0 7 -16 7 -35 0 -48 34 -253
65 -399 14 -65 23 -121 20 -124 -2 -3 2 -10 10 -16 8 -6 28 -47 44 -91 33 -85
30 -108 -11 -86 -48 25 -115 67 -146 90 -18 14 -40 26 -49 27 -9 2 -20 9 -24
16 -5 7 -30 14 -59 15 -28 1 -56 6 -63 11 -22 17 -66 22 -92 10 -21 -9 -28 -9
-34 1 -6 10 -12 9 -25 -4 -9 -9 -16 -12 -16 -6 0 7 -8 7 -24 1 -13 -5 -27 -6
-32 -2 -4 4 -3 1 1 -7 6 -11 4 -13 -9 -8 -9 4 -15 3 -12 -2 3 -5 -8 -14 -24
-21 -32 -13 -109 -70 -95 -70 5 0 1 -8 -7 -17 -66 -77 -85 -270 -38 -398 19
-51 37 -75 127 -162 57 -57 131 -121 163 -144 33 -23 57 -45 54 -50 -3 -5 1
-6 9 -4 7 3 22 -4 33 -16 19 -21 19 -21 -6 -40 -31 -25 -156 -104 -234 -150
-51 -30 -90 -61 -229 -186 -15 -14 -40 -42 -54 -62 -15 -20 -37 -47 -49 -61
-12 -14 -36 -53 -53 -86 -18 -34 -47 -83 -66 -110 -19 -27 -35 -54 -35 -60 0
-12 -46 -53 -106 -94 -20 -14 -50 -39 -68 -56 -17 -17 -36 -33 -41 -35 -6 -2
-56 -33 -112 -67 -115 -71 -210 -169 -248 -257 -23 -51 -73 -215 -82 -270 -5
-30 -58 -94 -77 -96 -19 -1 -201 -154 -202 -169 0 -8 -4 -22 -8 -32 -8 -18 5
-99 31 -185 9 -32 16 -61 15 -64 -1 -7 47 -107 67 -139 5 -8 16 -30 23 -47 7
-18 16 -33 19 -33 4 0 30 -36 59 -81 28 -44 63 -90 78 -102 14 -12 35 -31 46
-42 12 -11 23 -20 26 -21 3 0 31 -8 63 -17 83 -25 145 -35 154 -26 5 5 17 10
28 12 32 6 55 18 143 70 82 49 83 49 146 42 60 -6 68 -4 137 31 68 34 74 35
84 19 5 -10 25 -34 43 -52 17 -19 32 -39 32 -44 0 -22 97 -102 163 -133 71
-34 184 -114 200 -142 4 -8 17 -14 27 -14 10 0 25 -9 33 -20 8 -11 17 -17 21
-13 4 4 10 3 14 -3 15 -22 131 -72 257 -111 28 -8 80 -30 117 -48 64 -33 219
-86 343 -120 59 -16 154 -35 365 -74 58 -11 123 -25 145 -31 22 -7 65 -16 95
-20 30 -5 69 -11 85 -15 17 -3 43 -6 59 -5 16 0 95 -9 175 -21 121 -18 170
-20 281 -14 132 6 215 18 255 35 19 8 82 20 137 25 44 5 62 -25 64 -107 1 -63
4 -74 25 -90 13 -11 32 -26 42 -34 9 -7 22 -14 27 -14 6 0 10 -5 10 -11 0 -6
5 -9 12 -7 7 3 46 -4 88 -15 61 -16 122 -20 334 -24 237 -5 269 -3 370 17 61
12 138 30 171 40 33 9 78 23 100 29 54 14 88 52 115 129 24 67 25 55 -7 295
-5 36 -4 37 27 37 40 0 117 18 150 34 14 7 52 18 85 25 33 7 114 27 180 43
159 40 186 40 227 0 52 -49 292 -148 319 -131 8 5 34 8 59 8 25 0 75 9 113 20
37 11 67 17 67 15 0 -7 91 46 125 74 66 52 108 82 116 82 4 0 29 -13 56 -30
86 -54 262 -51 411 6 37 14 81 31 97 37 39 15 167 145 190 194 73 152 -41 313
-220 313 -63 0 -135 -15 -135 -29 0 -4 -15 -16 -33 -26 -44 -23 -87 -92 -87
-139 0 -40 -12 -45 -69 -25 -36 13 -51 35 -51 77 0 16 -11 44 -25 63 -14 19
-33 46 -42 60 -18 29 -96 59 -151 59 l-31 0 47 98 c27 53 68 131 92 172 25 41
54 99 66 128 13 30 33 70 47 90 49 76 57 93 86 191 17 55 35 111 42 123 23 45
73 118 80 118 4 0 29 -18 55 -41 91 -76 165 -102 289 -102 55 0 183 34 237 63
10 6 25 7 35 4 15 -5 16 -4 3 5 -12 9 -11 11 8 11 13 0 21 4 18 9 -3 5 4 11
16 14 12 4 19 9 15 13 -3 4 1 20 9 36 9 17 18 27 21 24 3 -3 12 5 19 19 7 13
19 37 27 52 31 61 41 102 45 188 5 134 -15 210 -96 372 -92 181 -116 227 -123
233 -3 3 -25 33 -48 68 -23 34 -73 98 -111 141 -38 43 -66 81 -63 85 4 4 0 4
-9 1 -11 -4 -20 0 -27 13 -14 27 -5 178 14 232 22 62 20 231 -4 339 -11 47
-22 138 -24 202 -5 121 -14 150 -62 215 -41 54 -41 91 -2 185 19 46 38 104 41
129 4 25 16 74 27 110 21 72 42 180 60 310 24 170 -40 505 -132 690 -15 31
-32 75 -39 99 -13 50 -96 202 -151 276 -77 105 -217 221 -336 280 -38 18 -77
43 -89 56 -52 60 -174 265 -174 294 0 8 14 22 32 31 l32 17 -41 36 c-126 111
-173 141 -378 244 -193 96 -298 128 -540 162 -110 15 -136 22 -210 56 -97 43
-336 89 -469 89 -45 0 -107 4 -137 9 -30 5 -187 12 -349 15 -230 4 -311 2
-370 -9z"/>
<path d="M2792 7485 c0 -16 2 -22 5 -12 2 9 2 23 0 30 -3 6 -5 -1 -5 -18z"/>
</g>
</svg>
