<?xml version="1.0" standalone="no"?>
<!DOCTYPE svg PUBLIC "-//W3C//DTD SVG 20010904//EN"
 "http://www.w3.org/TR/2001/REC-SVG-20010904/DTD/svg10.dtd">
<svg version="1.0" xmlns="http://www.w3.org/2000/svg"
 width="1080.000000pt" height="1080.000000pt" viewBox="0 0 1080.000000 1080.000000"
 preserveAspectRatio="xMidYMid meet">

<g transform="translate(0.000000,1080.000000) scale(0.100000,-0.100000)"
fill="#000000" stroke="none">
<path d="M5095 9703 c-16 -2 -63 -10 -104 -18 -40 -8 -93 -15 -118 -15 -24 0
-56 -6 -71 -13 -15 -8 -49 -19 -77 -26 -27 -7 -74 -19 -103 -28 -29 -8 -64
-16 -77 -17 -12 0 -21 -4 -19 -7 4 -8 -30 -24 -81 -39 -22 -7 -56 -23 -75 -36
-20 -13 -83 -40 -140 -60 -58 -20 -108 -41 -112 -48 -4 -6 -8 -8 -8 -4 0 4
-11 -3 -24 -15 -13 -12 -61 -44 -107 -70 -184 -105 -346 -224 -462 -340 -149
-148 -367 -444 -367 -498 0 -10 -4 -21 -10 -24 -5 -3 -10 -15 -10 -26 0 -10
-5 -19 -11 -19 -5 0 -8 -4 -4 -9 3 -5 -1 -15 -8 -23 -55 -57 -118 -161 -136
-223 -36 -129 -78 -260 -95 -300 -11 -26 -20 -89 -27 -185 -5 -80 -11 -152
-14 -160 -2 -8 -7 -46 -11 -85 -3 -38 -11 -79 -17 -90 -12 -23 -26 -295 -14
-295 4 0 7 -16 7 -35 0 -48 34 -253 65 -399 14 -65 23 -121 20 -124 -2 -3 2
-10 10 -16 8 -6 28 -47 44 -91 33 -85 30 -108 -11 -86 -48 25 -115 67 -146 90
-18 14 -40 26 -49 27 -9 2 -20 9 -24 16 -5 7 -30 14 -59 15 -28 1 -56 6 -63
11 -22 17 -66 22 -92 10 -21 -9 -28 -9 -34 1 -6 10 -12 9 -25 -4 -9 -9 -16
-12 -16 -6 0 7 -8 7 -24 1 -13 -5 -27 -6 -32 -2 -4 4 -3 1 1 -7 6 -11 4 -13
-9 -8 -9 4 -15 3 -12 -2 3 -5 -8 -14 -24 -21 -32 -13 -109 -70 -95 -70 5 0 1
-8 -7 -17 -66 -77 -85 -270 -38 -398 19 -51 37 -75 127 -162 57 -57 131 -121
163 -144 33 -23 57 -45 54 -50 -3 -5 1 -6 9 -4 7 3 22 -4 33 -16 19 -21 19
-21 -6 -40 -31 -25 -156 -104 -234 -150 -51 -30 -90 -61 -229 -186 -15 -14
-40 -42 -54 -62 -15 -20 -37 -47 -49 -61 -12 -14 -36 -53 -53 -86 -18 -34 -47
-83 -66 -110 -19 -27 -35 -54 -35 -60 0 -12 -46 -53 -106 -94 -20 -14 -50 -39
-68 -56 -17 -17 -36 -33 -41 -35 -6 -2 -56 -33 -112 -67 -115 -71 -210 -169
-248 -257 -23 -51 -73 -215 -82 -270 -5 -30 -58 -94 -77 -96 -19 -1 -201 -154
-202 -169 0 -8 -4 -22 -8 -32 -8 -18 5 -99 31 -185 9 -32 16 -61 15 -64 -1 -7
47 -107 67 -139 5 -8 16 -30 23 -48 7 -17 16 -32 19 -32 4 0 30 -36 59 -81 28
-44 63 -90 78 -102 14 -12 35 -31 46 -42 12 -11 23 -20 26 -21 3 0 31 -8 63
-17 83 -25 145 -35 154 -26 5 5 17 10 28 12 32 6 55 18 143 70 82 49 83 49
146 42 60 -6 68 -4 137 31 68 34 74 35 84 19 5 -10 25 -34 43 -52 17 -19 32
-39 32 -44 0 -22 97 -102 163 -133 71 -34 184 -114 200 -142 4 -8 17 -14 27
-14 10 0 25 -9 33 -20 8 -11 17 -17 21 -13 4 4 10 3 14 -3 15 -22 131 -72 257
-111 28 -8 80 -30 117 -48 64 -33 219 -86 343 -120 59 -16 154 -35 365 -74 58
-11 123 -25 145 -31 22 -7 65 -16 95 -20 30 -5 69 -11 85 -15 17 -3 43 -6 59
-5 16 0 95 -9 175 -21 121 -18 170 -20 281 -14 132 6 215 18 255 35 19 8 82
20 137 25 44 5 62 -25 64 -107 1 -63 4 -74 25 -90 13 -11 32 -26 42 -34 9 -7
22 -14 27 -14 6 0 10 -5 10 -11 0 -6 5 -9 12 -7 7 3 46 -4 88 -15 61 -16 122
-20 334 -24 237 -5 269 -3 370 17 61 12 138 30 171 40 33 9 78 23 100 29 54
14 88 52 115 129 24 67 25 55 -7 294 -5 37 -4 38 27 38 40 0 117 18 150 34 14
7 52 18 85 25 33 7 114 27 180 43 159 40 186 40 227 0 52 -49 292 -148 319
-131 8 5 34 8 59 8 25 0 75 9 113 20 37 11 67 17 67 15 0 -7 91 46 125 74 66
52 108 82 116 82 4 0 29 -13 56 -30 86 -54 262 -51 411 6 37 14 81 31 97 37
39 15 167 145 190 194 73 152 -41 313 -220 313 -63 0 -135 -15 -135 -29 0 -4
-15 -16 -33 -26 -44 -23 -87 -92 -87 -139 0 -40 -12 -45 -69 -25 -36 13 -51
35 -51 77 0 16 -11 44 -25 63 -14 19 -33 46 -42 60 -18 29 -96 59 -151 59
l-31 0 47 98 c27 53 68 131 92 172 25 41 54 99 66 128 13 30 33 70 47 90 49
76 57 93 86 191 17 55 35 111 42 123 23 45 73 118 80 118 4 0 29 -18 55 -41
91 -76 165 -102 289 -102 55 0 183 34 237 63 10 6 25 7 35 4 15 -5 16 -4 3 5
-12 9 -11 11 8 11 13 0 21 4 18 9 -3 5 4 11 16 14 12 4 19 9 15 13 -3 4 1 20
9 36 9 17 18 27 21 24 3 -3 12 5 19 19 7 13 19 37 27 52 31 61 41 102 45 188
5 134 -15 210 -96 372 -92 181 -116 227 -123 233 -3 3 -25 33 -48 68 -23 34
-73 98 -111 141 -38 43 -66 81 -63 85 4 4 0 4 -9 1 -11 -4 -20 0 -27 13 -14
27 -5 178 14 232 23 65 19 247 -7 335 -39 131 -22 279 50 435 43 94 49 112 58
191 3 30 19 98 36 153 29 98 30 100 29 335 -1 163 -5 255 -15 296 -55 237 -76
317 -100 367 -14 31 -31 69 -37 85 -47 124 -182 409 -216 458 -108 153 -203
295 -199 295 3 0 -5 11 -17 23 -46 49 -75 84 -126 152 -29 39 -70 84 -91 100
-21 17 -44 42 -50 57 -13 29 -120 138 -163 167 -16 10 -50 39 -76 64 -34 32
-101 73 -217 133 -92 47 -178 93 -190 101 -13 8 -27 15 -31 15 -11 1 -50 16
-98 39 -64 30 -168 68 -232 85 -170 46 -319 81 -325 77 -5 -2 -8 0 -8 5 0 9
-62 23 -180 43 -36 5 -96 16 -135 24 -131 26 -290 35 -605 34 -173 -1 -328 -4
-345 -6z m745 -82 c99 -10 360 -50 371 -56 4 -3 51 -10 105 -15 123 -13 271
-49 362 -89 39 -17 79 -31 89 -31 11 0 50 -16 89 -35 38 -19 73 -35 78 -35 5
0 63 -23 128 -51 114 -49 240 -119 359 -200 81 -55 221 -202 333 -349 52 -69
103 -134 113 -145 10 -11 17 -23 15 -27 -1 -5 3 -8 9 -8 5 0 7 -4 4 -10 -3 -5
-2 -10 4 -10 9 0 139 -190 170 -249 7 -13 32 -49 56 -80 23 -31 57 -85 74
-121 18 -36 41 -78 51 -95 10 -16 30 -61 45 -100 14 -38 30 -74 35 -79 6 -6
10 -17 10 -25 0 -9 12 -43 26 -76 14 -33 32 -85 40 -115 8 -30 26 -91 39 -135
13 -44 26 -107 29 -140 3 -33 9 -76 15 -95 18 -58 13 -238 -9 -342 -11 -51
-27 -127 -36 -168 -9 -41 -25 -95 -36 -120 -11 -25 -36 -90 -55 -145 -20 -55
-40 -106 -46 -112 -14 -19 -35 -16 -42 6 -3 10 -20 22 -38 28 -42 12 -39 37
17 123 24 36 47 76 51 90 4 14 19 52 33 85 29 70 38 106 58 233 7 51 18 101
24 111 21 39 23 180 6 314 -26 194 -67 347 -127 467 -15 31 -32 76 -39 100 -6
25 -20 59 -30 75 -11 17 -35 63 -54 102 -32 65 -122 176 -184 226 -12 10 -28
24 -35 30 -33 32 -124 92 -184 122 -38 18 -77 43 -89 56 -52 60 -174 265 -174
294 0 8 14 22 32 31 l32 17 -41 36 c-139 122 -236 185 -398 258 -206 93 -296
118 -555 153 -76 10 -103 18 -175 51 -63 28 -138 46 -320 78 -220 38 -354 47
-660 43 -276 -3 -366 -14 -514 -62 -52 -16 -98 -27 -102 -23 -4 5 -9 19 -11
33 -3 25 -4 25 -88 22 -104 -3 -275 -48 -396 -103 -23 -11 -44 -19 -49 -19 -4
0 -34 -21 -67 -46 -33 -25 -76 -53 -96 -62 -21 -9 -39 -20 -42 -23 -3 -3 -39
-29 -80 -57 -41 -28 -86 -65 -100 -82 -14 -18 -55 -54 -91 -81 -37 -27 -80
-66 -95 -87 -45 -59 -127 -139 -151 -146 -13 -4 -23 -11 -23 -16 0 -5 -6 -7
-13 -4 -8 3 -25 -7 -38 -21 -22 -23 -70 -55 -84 -55 -7 0 16 40 41 70 11 14
31 42 43 62 44 74 326 321 471 413 25 16 64 44 87 62 23 19 77 50 120 69 43
20 90 42 105 50 39 21 162 72 249 103 43 15 83 32 90 38 8 6 37 14 64 17 28 4
79 16 115 26 101 29 300 50 480 51 91 1 206 4 255 8 106 7 227 5 345 -8z m40
-220 c74 -6 160 -17 190 -26 143 -42 239 -65 285 -66 28 0 44 -3 38 -6 -7 -2
-13 -11 -13 -19 0 -9 -4 -13 -9 -10 -5 4 -4 -5 2 -19 11 -22 16 -24 47 -17 53
11 209 5 307 -12 160 -28 389 -116 517 -199 28 -18 67 -43 86 -55 l35 -23 -47
6 c-46 4 -82 20 -156 67 -37 23 -37 23 -46 -14 -5 -23 0 -31 42 -61 84 -61
106 -69 193 -66 87 3 111 -7 83 -35 -16 -17 -15 -21 12 -79 15 -34 33 -69 39
-77 6 -8 17 -26 23 -40 17 -32 135 -167 187 -212 22 -19 91 -69 153 -112 126
-85 136 -94 177 -151 16 -22 34 -44 40 -50 21 -19 95 -124 95 -135 0 -6 9 -30
20 -52 11 -23 20 -48 20 -55 0 -7 9 -27 20 -45 11 -18 20 -41 20 -51 0 -9 4
-25 9 -35 17 -30 42 -122 36 -131 -3 -5 1 -11 9 -14 7 -3 17 -27 20 -54 4 -26
19 -84 33 -128 34 -106 43 -304 19 -410 -8 -38 -22 -101 -31 -139 -17 -75 -49
-182 -70 -231 -7 -16 -17 -41 -22 -55 -11 -27 -110 -146 -184 -220 -24 -25
-50 -61 -58 -80 -7 -19 -16 -42 -20 -50 -13 -25 -114 -80 -146 -80 -33 0 -58
-12 -54 -26 4 -17 -225 -93 -347 -115 -28 -5 -68 -16 -89 -25 -21 -8 -76 -22
-124 -30 -197 -33 -257 -42 -281 -42 -30 0 -289 -46 -380 -67 -71 -17 -467
-29 -485 -14 -6 4 -64 3 -130 -3 -70 -6 -245 -7 -420 -4 -318 7 -343 8 -445
25 -36 5 -127 19 -202 31 -75 11 -175 31 -223 45 -47 14 -102 25 -123 25 -127
2 -698 124 -792 170 -19 10 -75 29 -125 43 -84 23 -131 38 -180 58 -11 4 -38
13 -60 19 -22 6 -86 28 -142 48 -93 34 -102 39 -107 66 -10 48 6 49 68 6 31
-22 61 -40 65 -40 5 0 15 10 24 23 13 20 13 25 -2 42 -9 11 -33 28 -53 39 -20
10 -49 31 -64 47 -24 26 -28 37 -28 93 -1 35 1 67 4 70 3 3 23 0 45 -5 22 -6
66 -17 97 -24 32 -7 87 -32 123 -54 63 -40 105 -52 105 -30 0 5 -4 7 -10 4 -5
-3 -10 0 -10 9 0 8 -16 24 -35 36 -19 12 -35 28 -35 36 0 9 -4 12 -10 9 -5 -3
-10 -1 -10 6 0 7 -3 10 -6 6 -3 -3 -33 8 -67 24 -34 16 -67 29 -74 29 -7 0
-22 10 -34 23 -12 12 -19 16 -15 9 4 -7 -13 1 -37 18 -25 17 -62 55 -82 85
-20 30 -40 55 -46 55 -5 0 -9 8 -9 18 0 14 2 15 10 2 5 -8 10 -11 10 -6 0 5
-15 23 -34 40 -18 17 -36 44 -39 60 -4 24 2 35 32 63 20 18 44 36 54 39 11 3
17 16 17 33 0 42 -44 48 -104 16 -25 -13 -48 -20 -51 -15 -12 20 -16 292 -5
381 20 165 29 201 50 194 27 -8 70 5 70 22 0 8 -14 27 -31 43 -31 28 -31 30
-20 74 6 25 11 57 11 71 0 14 7 28 15 31 8 4 15 16 15 28 0 12 9 46 20 76 11
30 20 62 20 70 0 9 16 43 36 76 21 32 45 75 55 95 10 19 25 41 33 49 9 7 16
19 16 27 0 7 7 16 15 19 8 4 15 12 15 20 0 8 5 14 10 14 6 0 10 6 10 13 1 6
12 21 26 32 28 22 28 22 73 76 26 31 84 70 225 151 28 16 30 16 57 -3 l28 -20
14 23 c8 13 20 41 27 63 8 25 44 74 94 130 45 50 92 104 106 120 40 47 121
115 138 115 9 0 46 20 83 45 37 25 72 45 77 45 6 0 23 11 39 24 15 13 53 33
83 45 30 13 79 34 109 47 40 19 215 64 247 64 13 0 0 -55 -26 -108 -44 -92
-39 -99 33 -42 79 64 146 96 230 110 36 5 72 13 80 16 8 3 77 16 153 29 127
22 159 24 364 20 124 -3 286 -9 360 -14z m-2901 -2625 c12 -19 37 -47 56 -63
19 -17 31 -33 27 -37 -4 -4 -6 -47 -4 -94 4 -104 -8 -145 -41 -140 -16 2 -22
10 -23 29 -1 14 -4 32 -9 38 -7 12 -16 42 -50 166 -10 40 -22 123 -29 217 -1
3 -4 10 -8 14 -5 4 -8 28 -7 53 0 45 1 44 34 -52 19 -54 43 -113 54 -131z
m-309 -454 c41 -17 100 -52 130 -77 30 -25 71 -50 90 -56 19 -6 45 -18 58 -26
12 -7 26 -12 31 -9 28 18 35 -138 7 -156 -8 -6 -8 -8 1 -8 18 0 8 -28 -83
-227 -8 -18 -19 -33 -24 -33 -6 0 -10 -7 -10 -16 0 -9 -12 -31 -27 -50 -80
-97 -87 -103 -133 -109 -42 -6 -48 -4 -80 27 -19 18 -35 36 -35 40 0 3 -4 10
-9 15 -5 5 -6 3 -2 -4 27 -47 -84 36 -181 136 -160 163 -195 237 -175 371 14
95 51 156 117 193 47 26 56 27 150 24 86 -2 110 -7 175 -35z m5567 -59 c4 -10
13 -24 21 -32 21 -21 11 -111 -15 -144 -24 -31 -33 -26 -33 18 0 18 -9 58 -20
90 -15 44 -17 61 -9 72 16 19 48 16 56 -4z m-5044 -21 c10 -10 14 -22 10 -25
-3 -4 0 -7 7 -7 10 0 9 -5 -4 -17 -21 -22 -59 -83 -62 -101 -8 -43 -39 -23
-69 44 -29 66 -31 81 -8 106 22 25 104 25 126 0z m168 -71 c24 -11 68 -23 97
-27 29 -3 55 -11 58 -16 9 -15 -5 -60 -17 -52 -7 4 -9 -1 -4 -15 4 -12 2 -21
-4 -21 -6 0 -11 -8 -11 -18 0 -10 -3 -22 -7 -26 -4 -3 -7 -26 -8 -51 0 -24 -3
-47 -7 -50 -4 -4 -36 3 -73 15 -68 23 -174 95 -202 136 -14 22 -14 26 2 51 28
42 66 73 91 73 12 0 26 5 29 10 8 13 5 13 56 -9z m4769 -16 c12 -37 16 -118 6
-134 -3 -5 -1 -11 6 -13 18 -6 -1 -29 -39 -44 -105 -44 -132 -53 -127 -41 2 7
0 44 -7 82 -6 39 -11 78 -12 89 -2 13 17 29 68 57 39 21 75 38 82 38 6 1 17
-15 23 -34z m-4408 -74 c29 -10 76 -25 103 -33 48 -15 50 -17 53 -54 3 -54
-39 -204 -61 -218 -13 -8 -20 -8 -26 3 -5 7 -13 11 -19 8 -5 -4 -49 5 -98 19
-92 27 -177 65 -158 71 7 2 8 20 3 51 -7 51 -2 66 44 124 42 53 75 59 159 29z
m4166 -3 c1 -7 7 -44 14 -81 10 -58 9 -70 -3 -78 -11 -7 -11 -9 4 -9 9 0 17
-4 17 -9 0 -10 -39 -27 -54 -23 -4 2 -13 -1 -20 -6 -18 -15 -85 -22 -92 -10
-4 7 -2 8 4 4 6 -4 5 6 -3 21 -8 15 -15 38 -15 51 0 13 -7 37 -16 53 -8 17
-14 32 -12 33 3 3 14 7 123 47 28 10 50 18 51 19 0 0 1 -6 2 -12z m-3863 -84
c28 -9 73 -15 100 -15 28 0 58 -6 68 -13 37 -28 48 -123 22 -195 -8 -23 -14
-45 -12 -49 3 -10 -29 -53 -35 -47 -3 3 -27 8 -54 11 -27 3 -85 18 -130 33
-74 25 -80 29 -77 52 2 13 6 53 9 89 3 36 12 78 20 94 8 16 14 35 14 43 0 17
14 16 75 -3z m4300 -20 c21 -50 20 -217 -1 -298 -10 -33 -22 -91 -28 -128
l-11 -67 -55 37 c-31 20 -72 49 -91 65 -34 25 -59 35 -59 21 0 -15 162 -186
234 -248 157 -132 226 -227 364 -496 52 -100 55 -109 57 -190 2 -47 -1 -110
-6 -140 -6 -30 -12 -68 -14 -85 -6 -51 -22 -93 -56 -144 -28 -44 -41 -54 -113
-84 -105 -45 -129 -49 -228 -36 -100 12 -145 35 -265 134 -48 40 -113 93 -143
117 -30 24 -85 83 -121 131 -36 48 -116 140 -178 204 -85 90 -114 114 -123
105 -9 -9 -8 -16 4 -29 8 -10 26 -38 41 -63 14 -25 44 -64 67 -88 22 -24 40
-50 40 -58 0 -8 4 -13 8 -10 5 3 38 -36 74 -87 73 -101 161 -206 187 -222 9
-5 31 -20 47 -33 l31 -24 -23 -56 c-13 -31 -24 -62 -24 -68 0 -12 -25 -72 -66
-159 -13 -27 -50 -93 -83 -145 -33 -52 -95 -153 -137 -225 -42 -71 -98 -157
-123 -190 -25 -33 -62 -85 -81 -115 -19 -30 -38 -56 -42 -58 -5 -2 -8 -10 -8
-18 0 -17 -143 -159 -192 -190 -20 -13 -39 -33 -43 -44 -5 -15 -48 -42 -143
-88 -144 -70 -214 -102 -226 -102 -4 0 -13 -6 -21 -13 -7 -8 -67 -31 -132 -52
-65 -21 -149 -49 -188 -63 -89 -31 -218 -34 -247 -4 -24 24 -27 153 -4 215 8
23 22 68 31 99 8 31 30 85 48 120 30 56 32 66 22 91 l-12 29 -28 -34 c-39 -45
-75 -130 -120 -278 -37 -124 -38 -126 -32 -255 3 -71 9 -140 12 -151 6 -19 0
-24 -57 -43 -163 -53 -184 -55 -618 -53 -223 1 -417 3 -433 3 -15 1 -35 -6
-45 -15 -10 -9 -21 -16 -24 -16 -3 0 -20 33 -38 72 -18 40 -49 107 -70 148
-21 41 -59 138 -86 215 l-49 140 0 146 0 145 49 75 c53 80 113 142 216 223 68
54 106 71 280 129 146 49 241 91 253 112 9 17 5 18 -49 12 -33 -4 -84 -14
-114 -22 -30 -9 -80 -23 -110 -30 -144 -36 -234 -76 -304 -134 -27 -23 -54
-45 -60 -49 -6 -4 -34 -32 -62 -64 -53 -59 -85 -117 -140 -260 -29 -76 -34
-99 -34 -175 0 -73 6 -103 31 -173 17 -47 35 -103 40 -125 10 -45 13 -51 24
-80 5 -11 17 -42 27 -70 11 -27 28 -65 39 -84 11 -19 18 -40 15 -48 -3 -8 -2
-12 3 -9 7 5 31 -42 31 -59 0 -3 -47 -17 -70 -21 -8 -2 -46 -11 -85 -20 -58
-14 -119 -17 -350 -17 -154 0 -293 4 -310 7 -16 4 -68 9 -114 12 -45 2 -90 8
-100 13 -9 5 -50 11 -91 15 -156 13 -155 13 -400 85 -58 17 -112 31 -120 31
-8 0 -51 14 -95 31 -44 17 -109 41 -144 54 -35 13 -80 35 -100 49 -20 13 -69
34 -108 46 -40 12 -73 25 -73 29 0 4 -45 29 -99 56 -55 27 -97 53 -94 58 3 6
2 7 -4 4 -11 -7 -55 21 -49 32 3 4 -6 8 -18 9 -13 1 -40 17 -61 37 -22 19 -44
35 -49 35 -17 0 -71 62 -68 78 2 8 -1 11 -8 7 -6 -4 -19 1 -29 11 -44 48 -119
134 -146 168 -16 20 -38 46 -48 57 -20 22 -67 111 -67 127 0 19 -61 153 -96
212 -28 47 -71 175 -85 255 -11 64 -8 322 5 400 21 123 27 155 42 205 9 30 20
63 25 72 5 10 9 23 9 29 0 15 76 173 109 224 13 22 39 63 56 90 18 28 42 70
54 95 13 26 44 64 77 90 30 25 72 61 92 81 99 95 319 226 421 250 25 6 75 24
111 39 114 49 291 82 454 86 60 1 141 5 180 9 116 11 471 -32 635 -76 40 -11
76 -17 79 -14 3 3 -2 5 -11 5 -10 0 -17 5 -17 10 0 6 -8 10 -17 10 -10 0 -31
8 -48 18 -39 23 -139 59 -190 67 -22 4 -53 11 -70 15 -16 5 -57 14 -90 20 -33
7 -87 18 -120 26 -70 16 -78 16 -250 10 -132 -5 -244 -17 -348 -40 -32 -7 -60
-9 -63 -4 -3 4 10 27 29 51 40 49 59 84 82 150 9 26 23 54 32 62 8 8 11 15 7
15 -3 0 0 7 7 16 7 9 14 22 15 30 1 8 15 24 30 36 25 20 25 22 8 29 -18 6 -18
7 -1 14 12 5 30 -4 63 -31 66 -57 143 -103 192 -116 23 -6 45 -14 48 -19 3 -5
16 -9 29 -9 28 0 117 -37 127 -53 4 -6 4 -15 2 -19 -3 -4 0 -8 6 -8 7 0 9 7 6
16 -5 12 -2 15 10 10 9 -3 27 -9 40 -12 13 -3 21 -11 17 -17 -3 -6 -1 -7 5 -3
10 6 175 -33 287 -69 22 -7 102 -27 177 -45 76 -18 136 -36 133 -40 -2 -3 10
-4 27 -2 23 4 29 2 23 -8 -5 -9 -4 -11 4 -6 6 4 42 1 79 -8 176 -40 627 -101
727 -99 39 1 105 -5 149 -13 79 -16 153 -16 966 0 69 1 148 8 175 14 28 7 102
21 165 32 117 19 253 43 460 80 63 11 151 30 195 41 79 21 317 72 405 88 25 5
81 25 125 46 44 20 123 52 175 71 186 68 251 97 317 144 38 27 71 49 75 49 4
1 15 -15 23 -35z m-727 17 c20 5 40 9 44 9 3 0 14 -21 23 -47 9 -27 23 -63 31
-80 16 -39 17 -39 -108 -83 -101 -35 -172 -52 -191 -44 -10 3 -16 28 -20 77
-2 40 -8 79 -11 88 -5 12 12 23 86 50 51 20 97 32 101 28 5 -3 25 -3 45 2z
m-3223 -78 c17 -3 37 -7 45 -7 8 -1 49 -10 91 -20 76 -19 77 -20 90 -60 19
-56 15 -131 -10 -187 l-21 -46 -42 9 c-24 5 -72 8 -108 8 -49 0 -72 5 -95 20
-16 11 -40 20 -52 20 l-22 0 26 56 c23 52 25 65 20 141 l-6 83 27 -5 c15 -2
41 -8 57 -12z m2929 -40 c3 -21 6 -64 6 -95 0 -58 0 -58 -31 -58 -19 0 -28 -4
-23 -11 4 -6 -1 -10 -12 -8 -11 2 -28 0 -39 -4 -11 -4 -41 -11 -68 -16 l-47
-8 1 56 c2 55 -3 78 -22 114 -13 24 -12 25 36 29 22 2 42 6 45 10 5 7 89 24
131 27 11 1 18 -10 23 -36z m-2419 -52 c72 -12 144 -25 160 -29 l30 -8 2 -94
c2 -79 0 -99 -17 -124 -11 -17 -20 -27 -20 -22 0 5 -6 3 -14 -3 -10 -8 -27 -8
-63 -1 -57 12 -172 28 -256 34 -32 2 -61 6 -63 9 -2 2 7 29 22 60 22 49 24 65
19 114 -4 32 -9 67 -12 77 -6 22 -1 22 212 -13z m2119 1 c16 -30 18 -127 4
-155 -7 -13 -17 -17 -38 -14 -19 4 -39 -3 -62 -19 -20 -15 -55 -27 -86 -31
l-52 -6 0 29 c-1 16 -9 64 -19 107 -14 56 -16 80 -7 83 24 8 173 32 208 33 31
1 40 -4 52 -27z m-313 -131 l14 -64 -33 -27 c-18 -14 -38 -27 -45 -28 -6 0
-43 -6 -82 -11 -109 -16 -101 -20 -114 64 -20 135 -21 131 57 143 37 5 90 17
117 25 l50 14 12 -26 c6 -15 17 -55 24 -90z m-1298 77 l109 -12 25 -49 c21
-43 24 -59 20 -126 l-4 -76 -124 1 c-116 1 -175 5 -257 19 -27 5 -32 9 -26 23
5 9 10 65 12 125 l3 107 67 0 c36 0 115 -5 175 -12z m593 -25 c4 -10 13 -32
20 -50 9 -19 14 -58 13 -95 -2 -35 1 -73 5 -85 8 -21 5 -23 -23 -23 -17 0 -31
3 -31 8 0 4 -55 6 -122 5 -134 -2 -192 3 -183 17 3 5 -3 11 -14 15 -14 4 -20
19 -25 67 -4 34 -14 77 -22 96 -7 19 -12 38 -9 42 3 5 -1 11 -7 13 -7 3 78 6
190 6 185 1 203 -1 208 -16z m367 -15 c4 -18 9 -65 13 -104 5 -58 3 -73 -11
-87 -18 -19 -31 -21 -39 -8 -6 8 -49 5 -76 -7 -8 -4 -45 -7 -82 -7 l-68 0 0
66 c0 36 -7 88 -15 115 -8 27 -15 52 -15 57 0 4 65 7 144 7 l144 0 5 -32z
m-4617 -1190 c-4 -24 -16 -74 -28 -113 -19 -64 -20 -78 -9 -156 6 -48 11 -127
11 -177 0 -50 7 -126 15 -169 9 -43 20 -121 25 -173 6 -67 19 -124 45 -195 51
-141 86 -225 99 -238 22 -22 57 -100 52 -113 -8 -20 -87 -57 -119 -56 -16 0
-37 8 -47 17 -10 9 -24 14 -29 10 -13 -8 -121 75 -121 92 0 7 -7 13 -15 13
-16 0 -95 113 -95 136 0 7 -3 14 -7 16 -5 2 -23 28 -42 58 -91 147 -132 222
-162 300 -32 82 -34 90 -33 221 1 122 4 142 24 185 33 68 70 124 84 124 6 0
22 15 35 33 13 17 41 46 62 62 22 17 51 40 66 53 16 12 43 28 61 34 17 7 32
16 32 20 0 4 15 14 34 22 18 8 37 19 40 25 17 26 28 10 22 -31z m-507 -727
c12 -32 23 -64 25 -72 3 -21 67 -151 85 -173 14 -16 14 -18 1 -11 -8 4 -5 -2
7 -14 13 -12 25 -32 29 -46 3 -13 13 -26 21 -29 8 -4 13 -13 9 -21 -3 -8 -1
-15 3 -15 12 0 55 -69 48 -77 -7 -7 -87 38 -87 49 0 13 -29 9 -55 -8 -13 -9
-28 -14 -32 -11 -15 10 -6 -101 11 -124 9 -13 16 -29 16 -35 0 -12 72 -30 100
-25 30 6 69 42 72 68 4 31 24 42 32 16 3 -10 5 -22 3 -26 -1 -5 6 -13 16 -18
9 -6 14 -15 11 -21 -4 -6 -2 -8 4 -4 6 3 29 -11 51 -33 22 -21 42 -37 44 -35
2 3 10 -3 17 -11 12 -14 9 -20 -16 -40 -89 -74 -197 -90 -305 -47 -78 31 -129
78 -187 174 -27 46 -66 109 -85 142 -46 74 -97 227 -97 286 l1 45 112 87 c61
48 115 87 118 88 4 0 16 -26 28 -59z m173 -478 c23 -21 23 -29 -2 -56 -16 -17
-24 -19 -38 -11 -24 16 -28 55 -6 71 23 16 24 16 46 -4z m6267 -133 c19 -5 47
-22 63 -37 25 -24 28 -33 28 -92 0 -75 -21 -127 -93 -239 -32 -49 -59 -77 -98
-102 -30 -18 -74 -46 -99 -62 -69 -44 -141 -62 -250 -60 -92 2 -98 4 -198 52
-61 30 -102 55 -100 62 5 13 58 45 187 110 71 37 101 61 201 163 65 66 137
141 160 168 42 46 43 47 104 47 34 0 77 -4 95 -10z m491 -58 c0 -46 -67 -97
-107 -81 -27 10 -27 11 -8 49 17 33 58 59 93 60 18 0 22 -6 22 -28z m123 14
c47 -20 97 -77 104 -118 12 -77 -78 -205 -182 -260 -96 -51 -280 -72 -376 -44
-82 23 -89 37 -56 96 15 26 27 61 27 77 0 16 6 37 13 47 12 17 19 17 72 6 80
-17 194 -5 213 21 7 10 18 19 23 19 6 0 28 12 50 28 38 26 69 82 69 122 0 24
1 24 43 6z m-2132 -778 c19 -35 5 -156 -21 -183 -32 -34 -121 -63 -265 -87
-38 -6 -77 -17 -85 -23 -11 -10 -83 -11 -300 -5 -308 8 -382 19 -447 67 -32
23 -33 27 -33 94 0 64 2 70 24 79 13 5 179 12 368 15 188 3 353 8 365 10 12 3
75 9 140 15 65 5 136 16 158 24 57 21 82 19 96 -6z"/>
<path d="M7422 9054 c10 -10 20 -15 24 -12 3 4 -5 12 -18 18 -22 12 -22 12 -6
-6z"/>
<path d="M4686 8505 c-44 -15 -146 -83 -146 -96 0 -13 13 -11 56 8 31 13 71
17 184 17 156 1 214 -11 292 -61 42 -26 68 -30 68 -9 0 25 -172 124 -252 144
-62 16 -154 14 -202 -3z"/>
<path d="M4540 8310 c-14 -4 -52 -20 -85 -36 -54 -25 -57 -28 -32 -32 15 -2
51 4 81 12 74 22 302 22 399 0 40 -9 133 -40 207 -69 184 -72 213 -68 103 16
-40 30 -87 52 -174 80 l-119 39 -177 -1 c-98 0 -189 -4 -203 -9z"/>
<path d="M3725 8210 c-67 -5 -92 -11 -150 -42 -47 -25 -77 -48 -92 -72 -28
-43 -29 -55 -4 -32 28 26 170 73 244 80 69 8 166 -5 230 -30 35 -13 40 -13 62
4 22 18 22 19 4 30 -34 21 -123 53 -169 60 -25 4 -81 5 -125 2z"/>
<path d="M4450 8176 c-77 -17 -186 -53 -245 -81 -27 -13 -79 -38 -115 -54 -36
-17 -88 -50 -116 -73 -146 -122 -172 -140 -193 -129 -21 12 -101 11 -101 -1 0
-4 -15 -10 -34 -13 -32 -6 -209 27 -246 46 -8 4 -27 5 -41 2 -26 -5 -26 -6
-15 -45 l12 -39 60 -3 c33 -2 70 -9 82 -15 12 -6 50 -14 85 -17 58 -6 87 0
159 31 33 13 33 -24 0 -89 -44 -89 -55 -132 -49 -195 8 -89 5 -83 74 -160 48
-54 106 -85 243 -131 52 -18 104 -36 115 -40 40 -17 183 -41 415 -70 91 -12
203 -30 250 -41 47 -12 108 -20 136 -20 29 1 67 -5 85 -13 29 -11 67 -11 239
0 210 13 300 26 323 47 6 7 30 18 52 25 73 25 142 78 175 134 29 50 31 58 28
138 -4 88 -8 99 -86 246 -26 49 -81 119 -164 209 -58 64 -78 92 -70 100 4 5
-1 5 -10 2 -19 -7 -68 27 -68 47 0 6 -12 17 -27 24 -53 23 -103 59 -96 67 5 4
2 5 -5 1 -7 -4 -31 3 -55 17 -48 29 -142 62 -202 72 -22 4 -62 13 -89 21 -63
18 -425 18 -506 0z m504 -76 c34 -9 77 -25 95 -34 18 -10 65 -28 104 -41 87
-28 120 -42 172 -76 55 -36 180 -164 202 -208 10 -20 35 -51 55 -69 34 -31 66
-94 59 -117 -1 -5 1 -7 5 -2 16 15 55 -39 73 -102 27 -94 32 -148 15 -162 -8
-6 -14 -19 -14 -28 0 -40 -104 -105 -188 -117 -26 -3 -75 -15 -109 -26 -54
-17 -83 -19 -225 -15 -90 2 -219 11 -288 21 -241 32 -465 67 -495 76 -16 4
-61 13 -100 19 -157 25 -282 55 -342 82 -23 10 -45 19 -48 19 -3 0 -33 18 -66
41 -41 27 -59 46 -55 55 3 8 1 12 -4 9 -31 -19 -21 142 12 208 30 58 105 167
111 161 2 -3 8 5 11 18 8 28 132 122 148 112 6 -4 8 -3 5 4 -9 13 95 72 128
72 14 0 25 4 25 9 0 16 274 93 370 104 98 11 284 4 344 -13z"/>
<path d="M4210 7809 c0 -5 -13 -9 -30 -9 -23 0 -30 -4 -30 -20 0 -14 -7 -20
-21 -20 -11 0 -18 4 -15 9 7 11 -68 31 -92 24 -31 -8 -45 -43 -43 -108 3 -81
3 -85 11 -85 4 0 11 -19 15 -42 5 -24 9 -46 10 -50 1 -5 3 -17 4 -28 0 -11 6
-20 12 -20 14 0 109 98 109 113 0 6 20 32 44 57 58 60 119 157 105 166 -21 12
-79 22 -79 13z m-28 -121 c-95 -136 -138 -141 -149 -18 -5 55 -4 60 15 60 26
0 33 -21 19 -60 -10 -25 -9 -33 3 -40 19 -12 24 -8 65 55 33 49 65 72 73 53 2
-4 -10 -27 -26 -50z"/>
<path d="M5083 7754 c3 -4 1 -16 -5 -28 -14 -24 -17 -128 -5 -137 10 -7 39
-105 41 -136 0 -13 4 -23 9 -23 4 0 7 -12 7 -26 l0 -26 35 31 c20 17 46 33 60
37 15 4 39 29 66 70 35 55 41 70 36 100 -4 20 -9 39 -12 42 -3 4 -27 -1 -52
-10 -54 -19 -59 -18 -68 21 -7 33 -25 51 -74 75 -36 17 -49 20 -38 10z m70
-107 c8 -18 17 -54 21 -80 4 -26 10 -47 14 -47 4 0 20 18 35 40 26 36 57 53
57 31 0 -20 -107 -137 -116 -128 -8 8 -44 136 -51 185 -7 44 22 44 40 -1z"/>
<path d="M5797 8100 c-66 -12 -122 -35 -163 -68 -36 -28 -40 -38 -25 -61 7
-11 13 -12 23 -4 40 33 191 79 283 87 64 5 222 -35 292 -74 47 -27 53 -28 68
-14 27 27 -4 48 -155 108 -73 29 -235 42 -323 26z"/>
<path d="M3076 7691 c-14 -15 -15 -24 -6 -40 6 -12 15 -21 21 -21 6 0 19 -20
30 -45 16 -35 25 -45 44 -45 33 0 39 14 25 57 -12 34 -74 113 -90 113 -4 0
-15 -9 -24 -19z"/>
<path d="M6355 7650 c-56 -35 -136 -49 -258 -45 -125 5 -202 17 -251 40 -26
13 -96 18 -96 8 0 -1 5 -13 12 -27 21 -47 69 -67 186 -78 6 -1 12 -5 12 -9 0
-4 69 -6 153 -3 198 5 207 5 201 15 -3 5 3 9 14 9 10 0 22 3 26 8 4 4 11 7 14
7 11 0 52 44 52 56 0 9 -24 39 -32 39 -2 0 -17 -9 -33 -20z"/>
<path d="M3160 7495 c-10 -10 -14 -29 -12 -59 3 -39 7 -45 30 -49 38 -7 42 -2
42 58 0 39 -4 54 -16 59 -23 9 -28 8 -44 -9z"/>
<path d="M6663 7390 c-55 -13 -98 -44 -98 -70 0 -31 25 -37 70 -16 18 9 48 19
67 22 75 12 78 14 78 38 0 35 -41 45 -117 26z"/>
<path d="M6929 7323 c-9 -2 -16 -14 -16 -26 0 -16 12 -30 46 -48 43 -24 47
-25 64 -9 16 16 16 18 -3 42 -21 28 -64 47 -91 41z"/>
<path d="M3122 7265 c-23 -48 -28 -90 -12 -100 17 -11 51 19 71 64 27 62 25
81 -9 81 -23 0 -32 -8 -50 -45z"/>
<path d="M6110 7291 c-8 -9 -31 -37 -49 -61 -19 -25 -42 -52 -51 -61 -9 -9
-31 -46 -50 -83 -45 -87 -90 -128 -171 -154 -89 -29 -289 -55 -381 -50 -69 4
-77 3 -82 -15 -12 -45 -5 -47 182 -41 98 2 202 9 232 15 78 15 162 35 181 43
13 6 19 -6 34 -60 10 -36 27 -85 38 -107 11 -23 20 -48 20 -54 0 -7 4 -13 9
-13 4 0 8 -8 8 -18 0 -11 11 -24 25 -30 23 -11 27 -9 35 13 7 20 2 41 -25 104
-57 133 -67 232 -36 351 12 46 81 170 107 191 8 7 20 21 25 31 8 15 6 18 -13
17 -13 0 -30 -8 -38 -18z"/>
<path d="M6402 7250 c-53 -38 -96 -122 -115 -223 -9 -49 -11 -74 -4 -70 7 4 8
-1 3 -13 -5 -14 1 -11 24 11 38 36 60 75 60 107 0 13 12 40 26 61 23 34 60
145 51 153 -2 2 -22 -9 -45 -26z"/>
<path d="M7115 7169 c6 -9 3 -11 -9 -6 -29 11 -30 -21 -2 -63 14 -22 26 -44
26 -50 0 -6 5 -20 10 -30 9 -17 14 -18 35 -8 17 7 25 19 25 35 0 31 -46 110
-72 124 -16 9 -19 8 -13 -2z"/>
<path d="M7131 6903 c-6 -21 -11 -46 -11 -55 0 -9 -5 -20 -10 -23 -6 -4 -9
-20 -8 -36 2 -22 7 -29 24 -29 41 0 87 109 66 155 -18 39 -49 33 -61 -12z"/>
<path d="M6348 6806 c-10 -7 -18 -17 -18 -23 0 -22 64 -94 110 -123 28 -18 48
-35 45 -39 -2 -4 5 -7 17 -6 19 1 48 29 48 45 0 4 -25 24 -55 45 -31 21 -69
55 -86 76 -34 43 -36 44 -61 25z"/>
<path d="M6981 6667 c-43 -45 -59 -83 -41 -101 26 -26 128 73 116 112 -12 36
-34 33 -75 -11z"/>
<path d="M6619 6598 c-10 -18 6 -54 27 -62 6 -2 48 -1 93 3 72 6 85 10 102 31
10 14 19 28 19 32 0 4 -52 8 -116 10 -102 3 -117 1 -125 -14z"/>
<path d="M4683 6240 c-24 -14 -32 -26 -30 -42 2 -20 9 -24 57 -29 30 -3 97
-16 149 -28 52 -11 115 -21 140 -21 25 0 81 -7 124 -15 110 -21 541 -21 610 0
27 8 110 19 185 24 122 9 225 31 236 49 2 4 0 18 -5 31 -8 21 -13 22 -47 16
-59 -12 -81 -15 -187 -24 -55 -5 -134 -17 -175 -27 -103 -23 -483 -23 -620 0
-52 9 -113 17 -135 17 -46 2 -221 44 -247 59 -22 13 -17 13 -55 -10z"/>
<path d="M4992 6031 c-10 -6 -10 -10 2 -21 9 -7 14 -16 11 -20 -6 -9 7 -12
149 -36 99 -16 115 -16 311 5 180 19 195 22 195 44 0 16 -4 18 -22 12 -13 -4
-103 -10 -200 -12 -155 -4 -189 -2 -268 16 -96 22 -156 26 -178 12z"/>
<path d="M7930 5544 c-36 -30 -78 -70 -93 -87 -32 -35 -127 -175 -127 -185 0
-4 20 -19 43 -34 50 -32 135 -116 172 -170 29 -43 40 -47 55 -17 24 44 86 101
146 135 35 20 66 40 70 45 3 5 25 14 50 20 36 9 44 15 44 35 0 14 -10 30 -25
40 -14 9 -55 55 -92 103 -36 47 -71 88 -76 90 -5 2 -28 21 -51 42 -22 22 -43
39 -46 39 -3 0 -34 -25 -70 -56z m100 -49 c26 -19 50 -41 53 -48 3 -7 27 -43
55 -79 l50 -65 -56 -42 c-31 -22 -59 -38 -63 -33 -4 4 -11 43 -14 87 -8 100
-19 125 -57 125 -21 0 -32 -7 -40 -25 -9 -20 -18 -25 -50 -25 -31 0 -41 -5
-49 -24 -14 -29 -3 -96 14 -96 7 -1 30 -9 52 -20 22 -11 48 -19 58 -20 10 0
20 -7 23 -15 4 -11 13 -13 27 -9 14 4 8 -4 -16 -26 -20 -18 -37 -39 -37 -49 0
-10 -19 4 -54 39 -60 62 -81 81 -111 95 -11 6 -21 22 -23 37 -3 29 42 128 59
128 6 0 36 23 67 50 31 28 58 50 60 50 2 0 26 -16 52 -35z"/>
<path d="M5566 5225 c-28 -22 -31 -23 -60 -8 -21 11 -31 12 -34 4 -2 -6 -8 -9
-13 -5 -13 8 -11 -50 3 -64 9 -9 5 -17 -15 -36 -31 -28 -33 -41 -13 -62 10
-10 27 -12 58 -8 40 6 46 4 62 -20 22 -35 63 -51 81 -32 7 7 15 28 17 47 2 28
8 35 36 43 17 5 32 15 32 22 0 7 6 15 13 17 10 4 10 6 0 6 -7 1 -13 8 -13 16
0 8 -9 15 -19 15 -34 0 -51 12 -51 35 0 60 -34 72 -84 30z"/>
<path d="M5910 5140 c-29 -26 -37 -28 -80 -23 -41 5 -49 3 -52 -13 -2 -11 0
-30 6 -43 9 -20 6 -27 -17 -45 -50 -40 -24 -90 35 -67 25 9 48 -1 48 -22 0
-13 30 -40 37 -33 3 3 13 -3 21 -15 19 -28 53 -39 69 -23 8 8 13 38 13 77 l0
65 34 6 c59 11 56 68 -4 81 -23 5 -29 12 -32 37 -5 47 -37 54 -78 18z"/>
<path d="M5005 3806 c-228 -61 -316 -122 -387 -266 -39 -81 -56 -175 -28 -160
8 5 24 26 35 47 42 82 116 182 157 212 39 30 160 91 296 151 28 13 52 29 52
37 0 7 -1 13 -2 12 -2 -1 -57 -16 -123 -33z"/>
<path d="M5763 2307 c-57 -21 -76 -67 -51 -121 18 -41 53 -59 99 -51 56 10 89
41 96 92 10 76 -55 112 -144 80z m61 -53 c36 -14 3 -61 -34 -49 -22 7 -26 25
-8 43 14 14 20 14 42 6z"/>
<path d="M2792 7485 c0 -16 2 -22 5 -12 2 9 2 23 0 30 -3 6 -5 -1 -5 -18z"/>
</g>
</svg>
